<svg width="88" height="29" viewBox="0 0 88 29" fill="none" xmlns="http://www.w3.org/2000/svg">
<path d="M9.816 9.224C8.472 9.224 7.456 9.52 6.768 10.112C6.08 10.688 5.736 11.56 5.736 12.728V13.76H12.648V16.88H5.736V23H1.848V12.752C1.848 10.592 2.52 8.912 3.864 7.712C5.224 6.512 7.12 5.912 9.552 5.912C10.512 5.912 11.416 6.016 12.264 6.224C13.112 6.416 13.848 6.704 14.472 7.088L13.272 10.16C12.312 9.536 11.16 9.224 9.816 9.224ZM21.1256 23.192C19.6696 23.192 18.5336 22.808 17.7176 22.04C16.9016 21.256 16.4936 20.152 16.4936 18.728V5.192H20.2376V18.512C20.2376 19.056 20.3736 19.48 20.6456 19.784C20.9336 20.072 21.3336 20.216 21.8456 20.216C22.0376 20.216 22.2296 20.192 22.4216 20.144C22.6296 20.096 22.7896 20.04 22.9016 19.976L23.0696 22.88C22.4456 23.088 21.7976 23.192 21.1256 23.192ZM30.8173 23.192C29.4573 23.192 28.2333 22.912 27.1453 22.352C26.0733 21.776 25.2333 20.984 24.6253 19.976C24.0173 18.968 23.7133 17.824 23.7133 16.544C23.7133 15.264 24.0173 14.12 24.6253 13.112C25.2333 12.104 26.0733 11.32 27.1453 10.76C28.2333 10.184 29.4573 9.896 30.8173 9.896C32.1773 9.896 33.3933 10.184 34.4653 10.76C35.5373 11.32 36.3773 12.104 36.9853 13.112C37.5933 14.12 37.8973 15.264 37.8973 16.544C37.8973 17.824 37.5933 18.968 36.9853 19.976C36.3773 20.984 35.5373 21.776 34.4653 22.352C33.3933 22.912 32.1773 23.192 30.8173 23.192ZM30.8173 20.12C31.7773 20.12 32.5613 19.8 33.1693 19.16C33.7933 18.504 34.1053 17.632 34.1053 16.544C34.1053 15.456 33.7933 14.592 33.1693 13.952C32.5613 13.296 31.7773 12.968 30.8173 12.968C29.8573 12.968 29.0653 13.296 28.4413 13.952C27.8173 14.592 27.5053 15.456 27.5053 16.544C27.5053 17.632 27.8173 18.504 28.4413 19.16C29.0653 19.8 29.8573 20.12 30.8173 20.12ZM60.8239 10.088V17.216C60.8239 19.12 60.3039 20.592 59.2639 21.632C58.2239 22.672 56.7439 23.192 54.8239 23.192C53.8959 23.192 53.0719 23.048 52.3519 22.76C51.6479 22.472 51.0559 22.008 50.5759 21.368C50.0959 22.008 49.5039 22.472 48.7999 22.76C48.0959 23.048 47.2639 23.192 46.3039 23.192C44.3679 23.192 42.8879 22.672 41.8639 21.632C40.8399 20.592 40.3279 19.12 40.3279 17.216V10.088H44.0719V16.928C44.0719 18 44.2559 18.792 44.6239 19.304C44.9919 19.8 45.5679 20.048 46.3519 20.048C47.1519 20.048 47.7439 19.792 48.1279 19.28C48.5119 18.768 48.7039 17.984 48.7039 16.928V10.088H52.4479V16.928C52.4479 17.984 52.6399 18.768 53.0239 19.28C53.4079 19.792 53.9999 20.048 54.7999 20.048C55.5839 20.048 56.1599 19.8 56.5279 19.304C56.8959 18.792 57.0799 18 57.0799 16.928V10.088H60.8239ZM70.6929 20.192C71.3649 20.192 71.9569 20.096 72.4689 19.904C72.9969 19.696 73.4849 19.376 73.9329 18.944L75.9249 21.104C74.7089 22.496 72.9329 23.192 70.5969 23.192C69.1409 23.192 67.8529 22.912 66.7329 22.352C65.6129 21.776 64.7489 20.984 64.1409 19.976C63.5329 18.968 63.2289 17.824 63.2289 16.544C63.2289 15.28 63.5249 14.144 64.1169 13.136C64.7249 12.112 65.5489 11.32 66.5889 10.76C67.6449 10.184 68.8289 9.896 70.1409 9.896C71.3729 9.896 72.4929 10.16 73.5009 10.688C74.5089 11.2 75.3089 11.952 75.9009 12.944C76.5089 13.92 76.8129 15.08 76.8129 16.424L67.2609 18.272C67.5329 18.912 67.9569 19.392 68.5329 19.712C69.1249 20.032 69.8449 20.192 70.6929 20.192ZM70.1409 12.728C69.1969 12.728 68.4289 13.032 67.8369 13.64C67.2449 14.248 66.9329 15.088 66.9009 16.16L73.1889 14.936C73.0129 14.264 72.6529 13.728 72.1089 13.328C71.5649 12.928 70.9089 12.728 70.1409 12.728ZM82.9056 11.792C83.3536 11.168 83.9536 10.696 84.7056 10.376C85.4736 10.056 86.3536 9.896 87.3456 9.896V13.352C86.9296 13.32 86.6496 13.304 86.5056 13.304C85.4336 13.304 84.5936 13.608 83.9856 14.216C83.3776 14.808 83.0736 15.704 83.0736 16.904V23H79.3296V10.088H82.9056V11.792Z" fill="white"/>
</svg>
